<svg width="320" height="320" viewBox="0 0 320 320" fill="none" xmlns="http://www.w3.org/2000/svg">
<mask id="mask0_167_2739" style="mask-type:alpha" maskUnits="userSpaceOnUse" x="0" y="0" width="320" height="320">
<rect width="320" height="320" fill="white"/>
</mask>
<g mask="url(#mask0_167_2739)">
<path d="M264.005 301.331L223.672 260.998C218.116 264.553 212.227 267.609 206.005 270.164C199.783 272.72 193.339 274.776 186.672 276.331V248.998C189.783 247.887 192.839 246.776 195.839 245.664C198.839 244.553 201.672 243.22 204.339 241.664L160.005 197.331V266.664L93.3386 199.998H40.0052V119.998H82.6719L18.6719 55.9977L37.3385 37.3311L282.672 282.664L264.005 301.331ZM261.339 223.998L242.005 204.664C245.783 197.776 248.616 190.553 250.505 182.998C252.394 175.442 253.339 167.664 253.339 159.664C253.339 138.776 247.227 120.109 235.005 103.664C222.783 87.2199 206.672 76.1088 186.672 70.3311V42.9977C214.227 49.2199 236.672 63.1644 254.005 84.8311C271.339 106.498 280.005 131.442 280.005 159.664C280.005 171.442 278.394 182.776 275.172 193.664C271.95 204.553 267.339 214.664 261.339 223.998ZM216.672 179.331L186.672 149.331V105.998C197.116 110.887 205.283 118.22 211.172 127.998C217.061 137.776 220.005 148.442 220.005 159.998C220.005 163.331 219.727 166.609 219.172 169.831C218.616 173.053 217.783 176.22 216.672 179.331ZM160.005 122.664L125.339 87.9977L160.005 53.3311V122.664ZM133.339 201.998V170.664L109.339 146.664H66.6719V173.331H104.672L133.339 201.998Z" fill="white"/>
</g>
</svg>
