<svg width="320" height="321" viewBox="0 0 320 321" fill="none" xmlns="http://www.w3.org/2000/svg">
<mask id="mask0_167_2733" style="mask-type:alpha" maskUnits="userSpaceOnUse" x="0" y="0" width="320" height="321">
<rect y="0.524902" width="320" height="320" fill="white"/>
</mask>
<g mask="url(#mask0_167_2733)">
<path d="M186.667 276.86V249.526C206.667 243.749 222.778 232.637 235 216.193C247.222 199.749 253.333 181.082 253.333 160.193C253.333 139.304 247.222 120.637 235 104.193C222.778 87.7486 206.667 76.6375 186.667 70.8597V43.5264C214.222 49.7486 236.667 63.693 254 85.3597C271.333 107.026 280 131.971 280 160.193C280 188.415 271.333 213.36 254 235.026C236.667 256.693 214.222 270.637 186.667 276.86ZM40 200.526V120.526H93.3333L160 53.8597V267.193L93.3333 200.526H40ZM186.667 213.86V106.526C197.111 111.415 205.278 118.749 211.167 128.526C217.056 138.304 220 148.971 220 160.526C220 171.86 217.056 182.36 211.167 192.026C205.278 201.693 197.111 208.971 186.667 213.86ZM133.333 118.526L104.667 147.193H66.6667V173.86H104.667L133.333 202.526V118.526Z" fill="white"/>
</g>
</svg>
